<mxfile host="app.diagrams.net" agent="Mozilla/5.0 (Windows NT 10.0; Win64; x64) AppleWebKit/537.36 (KHTML, like Gecko) Chrome/133.0.0.0 Safari/537.36 Edg/133.0.0.0" version="26.0.15">
  <diagram name="Página-1" id="2iGTBBSSL8j79li_ncgn">
    <mxGraphModel dx="1240" dy="679" grid="1" gridSize="10" guides="1" tooltips="1" connect="1" arrows="1" fold="1" page="1" pageScale="1" pageWidth="827" pageHeight="1169" math="0" shadow="0">
      <root>
        <mxCell id="0" />
        <mxCell id="1" parent="0" />
        <mxCell id="Bm7MWyqaDWR8mYwb4yu1-10" style="edgeStyle=orthogonalEdgeStyle;rounded=0;orthogonalLoop=1;jettySize=auto;html=1;exitX=0.5;exitY=0;exitDx=0;exitDy=0;exitPerimeter=0;entryX=0.5;entryY=0;entryDx=0;entryDy=0;" edge="1" parent="1" target="Bm7MWyqaDWR8mYwb4yu1-9">
          <mxGeometry relative="1" as="geometry">
            <mxPoint x="310" y="90" as="sourcePoint" />
          </mxGeometry>
        </mxCell>
        <mxCell id="Bm7MWyqaDWR8mYwb4yu1-11" value="Início" style="ellipse;whiteSpace=wrap;html=1;aspect=fixed;fillColor=#cdeb8b;strokeColor=#36393d;" vertex="1" parent="1">
          <mxGeometry x="30" y="60" width="80" height="80" as="geometry" />
        </mxCell>
        <mxCell id="Bm7MWyqaDWR8mYwb4yu1-15" style="edgeStyle=orthogonalEdgeStyle;rounded=0;orthogonalLoop=1;jettySize=auto;html=1;entryX=0.5;entryY=0;entryDx=0;entryDy=0;" edge="1" parent="1" source="Bm7MWyqaDWR8mYwb4yu1-12" target="Bm7MWyqaDWR8mYwb4yu1-14">
          <mxGeometry relative="1" as="geometry" />
        </mxCell>
        <mxCell id="Bm7MWyqaDWR8mYwb4yu1-12" value="Digite o total de notas" style="shape=parallelogram;perimeter=parallelogramPerimeter;whiteSpace=wrap;html=1;fixedSize=1;fillColor=#cce5ff;strokeColor=#36393d;" vertex="1" parent="1">
          <mxGeometry x="130" y="70" width="120" height="60" as="geometry" />
        </mxCell>
        <mxCell id="Bm7MWyqaDWR8mYwb4yu1-13" style="edgeStyle=orthogonalEdgeStyle;rounded=0;orthogonalLoop=1;jettySize=auto;html=1;entryX=0.04;entryY=0.596;entryDx=0;entryDy=0;entryPerimeter=0;" edge="1" parent="1" source="Bm7MWyqaDWR8mYwb4yu1-11" target="Bm7MWyqaDWR8mYwb4yu1-12">
          <mxGeometry relative="1" as="geometry" />
        </mxCell>
        <mxCell id="Bm7MWyqaDWR8mYwb4yu1-35" style="edgeStyle=orthogonalEdgeStyle;rounded=0;orthogonalLoop=1;jettySize=auto;html=1;entryX=0;entryY=0.5;entryDx=0;entryDy=0;" edge="1" parent="1" source="Bm7MWyqaDWR8mYwb4yu1-14" target="Bm7MWyqaDWR8mYwb4yu1-16">
          <mxGeometry relative="1" as="geometry" />
        </mxCell>
        <mxCell id="Bm7MWyqaDWR8mYwb4yu1-14" value="Ler total de notas" style="shape=document;whiteSpace=wrap;html=1;boundedLbl=1;fillColor=#ffcc99;strokeColor=#36393d;" vertex="1" parent="1">
          <mxGeometry x="130" y="205" width="120" height="80" as="geometry" />
        </mxCell>
        <mxCell id="Bm7MWyqaDWR8mYwb4yu1-27" value="sim" style="edgeStyle=orthogonalEdgeStyle;rounded=0;orthogonalLoop=1;jettySize=auto;html=1;" edge="1" parent="1" source="Bm7MWyqaDWR8mYwb4yu1-16" target="Bm7MWyqaDWR8mYwb4yu1-18">
          <mxGeometry relative="1" as="geometry" />
        </mxCell>
        <mxCell id="Bm7MWyqaDWR8mYwb4yu1-36" value="não" style="edgeStyle=orthogonalEdgeStyle;rounded=0;orthogonalLoop=1;jettySize=auto;html=1;exitX=0.5;exitY=0;exitDx=0;exitDy=0;entryX=0;entryY=0.5;entryDx=0;entryDy=0;" edge="1" parent="1" source="Bm7MWyqaDWR8mYwb4yu1-16" target="Bm7MWyqaDWR8mYwb4yu1-29">
          <mxGeometry relative="1" as="geometry" />
        </mxCell>
        <mxCell id="Bm7MWyqaDWR8mYwb4yu1-16" value="notasAtual&lt;div&gt;&amp;lt;&lt;/div&gt;&lt;div&gt;totalNotas&lt;/div&gt;" style="rhombus;whiteSpace=wrap;html=1;fillColor=#fff2cc;gradientColor=#ffd966;strokeColor=#d6b656;" vertex="1" parent="1">
          <mxGeometry x="300" y="200" width="130" height="90" as="geometry" />
        </mxCell>
        <mxCell id="Bm7MWyqaDWR8mYwb4yu1-24" value="" style="edgeStyle=orthogonalEdgeStyle;rounded=0;orthogonalLoop=1;jettySize=auto;html=1;" edge="1" parent="1" source="Bm7MWyqaDWR8mYwb4yu1-18" target="Bm7MWyqaDWR8mYwb4yu1-20">
          <mxGeometry relative="1" as="geometry" />
        </mxCell>
        <mxCell id="Bm7MWyqaDWR8mYwb4yu1-18" value="Informe a nota N" style="shape=parallelogram;perimeter=parallelogramPerimeter;whiteSpace=wrap;html=1;fixedSize=1;fillColor=#cce5ff;strokeColor=#36393d;" vertex="1" parent="1">
          <mxGeometry x="305" y="430" width="120" height="60" as="geometry" />
        </mxCell>
        <mxCell id="Bm7MWyqaDWR8mYwb4yu1-26" style="edgeStyle=orthogonalEdgeStyle;rounded=0;orthogonalLoop=1;jettySize=auto;html=1;entryX=0.5;entryY=1;entryDx=0;entryDy=0;" edge="1" parent="1" source="Bm7MWyqaDWR8mYwb4yu1-20" target="Bm7MWyqaDWR8mYwb4yu1-25">
          <mxGeometry relative="1" as="geometry" />
        </mxCell>
        <mxCell id="Bm7MWyqaDWR8mYwb4yu1-20" value="Ler nota atual" style="shape=document;whiteSpace=wrap;html=1;boundedLbl=1;fillColor=#ffcc99;strokeColor=#36393d;" vertex="1" parent="1">
          <mxGeometry x="480" y="400" width="120" height="80" as="geometry" />
        </mxCell>
        <mxCell id="Bm7MWyqaDWR8mYwb4yu1-28" style="edgeStyle=orthogonalEdgeStyle;rounded=0;orthogonalLoop=1;jettySize=auto;html=1;entryX=1;entryY=0.5;entryDx=0;entryDy=0;" edge="1" parent="1" source="Bm7MWyqaDWR8mYwb4yu1-25" target="Bm7MWyqaDWR8mYwb4yu1-16">
          <mxGeometry relative="1" as="geometry" />
        </mxCell>
        <mxCell id="Bm7MWyqaDWR8mYwb4yu1-25" value="soma=soma +&lt;div&gt;notaAtual&lt;/div&gt;&lt;div&gt;contador++&lt;/div&gt;" style="shape=hexagon;perimeter=hexagonPerimeter2;whiteSpace=wrap;html=1;fixedSize=1;fillColor=#eeeeee;strokeColor=#36393d;" vertex="1" parent="1">
          <mxGeometry x="480" y="210" width="120" height="80" as="geometry" />
        </mxCell>
        <mxCell id="Bm7MWyqaDWR8mYwb4yu1-31" style="edgeStyle=orthogonalEdgeStyle;rounded=0;orthogonalLoop=1;jettySize=auto;html=1;" edge="1" parent="1" source="Bm7MWyqaDWR8mYwb4yu1-29" target="Bm7MWyqaDWR8mYwb4yu1-30">
          <mxGeometry relative="1" as="geometry" />
        </mxCell>
        <mxCell id="Bm7MWyqaDWR8mYwb4yu1-29" value="media=soma/totalNotas" style="shape=hexagon;perimeter=hexagonPerimeter2;whiteSpace=wrap;html=1;fixedSize=1;fillColor=#eeeeee;strokeColor=#36393d;" vertex="1" parent="1">
          <mxGeometry x="450" y="90" width="120" height="80" as="geometry" />
        </mxCell>
        <mxCell id="Bm7MWyqaDWR8mYwb4yu1-33" style="edgeStyle=orthogonalEdgeStyle;rounded=0;orthogonalLoop=1;jettySize=auto;html=1;" edge="1" parent="1" source="Bm7MWyqaDWR8mYwb4yu1-30">
          <mxGeometry relative="1" as="geometry">
            <mxPoint x="730.0000000000002" y="350" as="targetPoint" />
          </mxGeometry>
        </mxCell>
        <mxCell id="Bm7MWyqaDWR8mYwb4yu1-30" value="media" style="shape=parallelogram;perimeter=parallelogramPerimeter;whiteSpace=wrap;html=1;fixedSize=1;fillColor=#cce5ff;strokeColor=#36393d;" vertex="1" parent="1">
          <mxGeometry x="670" y="210" width="120" height="60" as="geometry" />
        </mxCell>
        <mxCell id="Bm7MWyqaDWR8mYwb4yu1-32" value="fim" style="ellipse;whiteSpace=wrap;html=1;aspect=fixed;fillColor=#ffcd28;gradientColor=#ffa500;strokeColor=#d79b00;" vertex="1" parent="1">
          <mxGeometry x="690" y="360" width="80" height="80" as="geometry" />
        </mxCell>
      </root>
    </mxGraphModel>
  </diagram>
</mxfile>
